<mxfile host="app.diagrams.net" modified="2022-02-25T07:28:37.345Z" agent="5.0 (Macintosh; Intel Mac OS X 10_15_7) AppleWebKit/537.36 (KHTML, like Gecko) Chrome/98.0.4758.102 Safari/537.36" etag="M-kOXLJAZuIBpM8V7Yy4" version="16.6.4" type="github">
  <diagram id="C6jIiFBb9JtyNrigomXV" name="Page-1">
    <mxGraphModel dx="1186" dy="796" grid="1" gridSize="10" guides="1" tooltips="1" connect="1" arrows="1" fold="1" page="1" pageScale="1" pageWidth="827" pageHeight="1169" math="0" shadow="0">
      <root>
        <mxCell id="0" />
        <mxCell id="1" parent="0" />
        <mxCell id="mdGvDX3dUPg5RDdedV_2-4" value="" style="shape=table;startSize=0;container=1;collapsible=0;childLayout=tableLayout;" vertex="1" parent="1">
          <mxGeometry x="129" y="170" width="570" height="60" as="geometry" />
        </mxCell>
        <mxCell id="mdGvDX3dUPg5RDdedV_2-5" value="" style="shape=tableRow;horizontal=0;startSize=0;swimlaneHead=0;swimlaneBody=0;top=0;left=0;bottom=0;right=0;collapsible=0;dropTarget=0;fillColor=none;points=[[0,0.5],[1,0.5]];portConstraint=eastwest;" vertex="1" parent="mdGvDX3dUPg5RDdedV_2-4">
          <mxGeometry width="570" height="20" as="geometry" />
        </mxCell>
        <mxCell id="mdGvDX3dUPg5RDdedV_2-6" value="user_no" style="shape=partialRectangle;html=1;whiteSpace=wrap;connectable=0;overflow=hidden;fillColor=none;top=0;left=0;bottom=0;right=0;pointerEvents=1;" vertex="1" parent="mdGvDX3dUPg5RDdedV_2-5">
          <mxGeometry width="81" height="20" as="geometry">
            <mxRectangle width="81" height="20" as="alternateBounds" />
          </mxGeometry>
        </mxCell>
        <mxCell id="mdGvDX3dUPg5RDdedV_2-7" value="id" style="shape=partialRectangle;html=1;whiteSpace=wrap;connectable=0;overflow=hidden;fillColor=none;top=0;left=0;bottom=0;right=0;pointerEvents=1;" vertex="1" parent="mdGvDX3dUPg5RDdedV_2-5">
          <mxGeometry x="81" width="82" height="20" as="geometry">
            <mxRectangle width="82" height="20" as="alternateBounds" />
          </mxGeometry>
        </mxCell>
        <mxCell id="mdGvDX3dUPg5RDdedV_2-8" value="password" style="shape=partialRectangle;html=1;whiteSpace=wrap;connectable=0;overflow=hidden;fillColor=none;top=0;left=0;bottom=0;right=0;pointerEvents=1;" vertex="1" parent="mdGvDX3dUPg5RDdedV_2-5">
          <mxGeometry x="163" width="81" height="20" as="geometry">
            <mxRectangle width="81" height="20" as="alternateBounds" />
          </mxGeometry>
        </mxCell>
        <mxCell id="mdGvDX3dUPg5RDdedV_2-9" value="permission" style="shape=partialRectangle;html=1;whiteSpace=wrap;connectable=0;overflow=hidden;fillColor=none;top=0;left=0;bottom=0;right=0;pointerEvents=1;" vertex="1" parent="mdGvDX3dUPg5RDdedV_2-5">
          <mxGeometry x="244" width="82" height="20" as="geometry">
            <mxRectangle width="82" height="20" as="alternateBounds" />
          </mxGeometry>
        </mxCell>
        <mxCell id="mdGvDX3dUPg5RDdedV_2-10" value="name" style="shape=partialRectangle;html=1;whiteSpace=wrap;connectable=0;overflow=hidden;fillColor=none;top=0;left=0;bottom=0;right=0;pointerEvents=1;" vertex="1" parent="mdGvDX3dUPg5RDdedV_2-5">
          <mxGeometry x="326" width="81" height="20" as="geometry">
            <mxRectangle width="81" height="20" as="alternateBounds" />
          </mxGeometry>
        </mxCell>
        <mxCell id="mdGvDX3dUPg5RDdedV_2-11" value="email" style="shape=partialRectangle;html=1;whiteSpace=wrap;connectable=0;overflow=hidden;fillColor=none;top=0;left=0;bottom=0;right=0;pointerEvents=1;" vertex="1" parent="mdGvDX3dUPg5RDdedV_2-5">
          <mxGeometry x="407" width="82" height="20" as="geometry">
            <mxRectangle width="82" height="20" as="alternateBounds" />
          </mxGeometry>
        </mxCell>
        <mxCell id="mdGvDX3dUPg5RDdedV_2-12" value="login_fail_limit" style="shape=partialRectangle;html=1;whiteSpace=wrap;connectable=0;overflow=hidden;fillColor=none;top=0;left=0;bottom=0;right=0;pointerEvents=1;" vertex="1" parent="mdGvDX3dUPg5RDdedV_2-5">
          <mxGeometry x="489" width="81" height="20" as="geometry">
            <mxRectangle width="81" height="20" as="alternateBounds" />
          </mxGeometry>
        </mxCell>
        <mxCell id="mdGvDX3dUPg5RDdedV_2-13" value="" style="shape=tableRow;horizontal=0;startSize=0;swimlaneHead=0;swimlaneBody=0;top=0;left=0;bottom=0;right=0;collapsible=0;dropTarget=0;fillColor=none;points=[[0,0.5],[1,0.5]];portConstraint=eastwest;" vertex="1" parent="mdGvDX3dUPg5RDdedV_2-4">
          <mxGeometry y="20" width="570" height="40" as="geometry" />
        </mxCell>
        <mxCell id="mdGvDX3dUPg5RDdedV_2-14" value="int &lt;br&gt;primary key" style="shape=partialRectangle;html=1;whiteSpace=wrap;connectable=0;overflow=hidden;fillColor=none;top=0;left=0;bottom=0;right=0;pointerEvents=1;" vertex="1" parent="mdGvDX3dUPg5RDdedV_2-13">
          <mxGeometry width="81" height="40" as="geometry">
            <mxRectangle width="81" height="40" as="alternateBounds" />
          </mxGeometry>
        </mxCell>
        <mxCell id="mdGvDX3dUPg5RDdedV_2-15" value="char" style="shape=partialRectangle;html=1;whiteSpace=wrap;connectable=0;overflow=hidden;fillColor=none;top=0;left=0;bottom=0;right=0;pointerEvents=1;" vertex="1" parent="mdGvDX3dUPg5RDdedV_2-13">
          <mxGeometry x="81" width="82" height="40" as="geometry">
            <mxRectangle width="82" height="40" as="alternateBounds" />
          </mxGeometry>
        </mxCell>
        <mxCell id="mdGvDX3dUPg5RDdedV_2-16" value="char" style="shape=partialRectangle;html=1;whiteSpace=wrap;connectable=0;overflow=hidden;fillColor=none;top=0;left=0;bottom=0;right=0;pointerEvents=1;" vertex="1" parent="mdGvDX3dUPg5RDdedV_2-13">
          <mxGeometry x="163" width="81" height="40" as="geometry">
            <mxRectangle width="81" height="40" as="alternateBounds" />
          </mxGeometry>
        </mxCell>
        <mxCell id="mdGvDX3dUPg5RDdedV_2-17" value="int" style="shape=partialRectangle;html=1;whiteSpace=wrap;connectable=0;overflow=hidden;fillColor=none;top=0;left=0;bottom=0;right=0;pointerEvents=1;" vertex="1" parent="mdGvDX3dUPg5RDdedV_2-13">
          <mxGeometry x="244" width="82" height="40" as="geometry">
            <mxRectangle width="82" height="40" as="alternateBounds" />
          </mxGeometry>
        </mxCell>
        <mxCell id="mdGvDX3dUPg5RDdedV_2-18" value="char" style="shape=partialRectangle;html=1;whiteSpace=wrap;connectable=0;overflow=hidden;fillColor=none;top=0;left=0;bottom=0;right=0;pointerEvents=1;" vertex="1" parent="mdGvDX3dUPg5RDdedV_2-13">
          <mxGeometry x="326" width="81" height="40" as="geometry">
            <mxRectangle width="81" height="40" as="alternateBounds" />
          </mxGeometry>
        </mxCell>
        <mxCell id="mdGvDX3dUPg5RDdedV_2-19" value="char" style="shape=partialRectangle;html=1;whiteSpace=wrap;connectable=0;overflow=hidden;fillColor=none;top=0;left=0;bottom=0;right=0;pointerEvents=1;" vertex="1" parent="mdGvDX3dUPg5RDdedV_2-13">
          <mxGeometry x="407" width="82" height="40" as="geometry">
            <mxRectangle width="82" height="40" as="alternateBounds" />
          </mxGeometry>
        </mxCell>
        <mxCell id="mdGvDX3dUPg5RDdedV_2-20" value="int" style="shape=partialRectangle;html=1;whiteSpace=wrap;connectable=0;overflow=hidden;fillColor=none;top=0;left=0;bottom=0;right=0;pointerEvents=1;" vertex="1" parent="mdGvDX3dUPg5RDdedV_2-13">
          <mxGeometry x="489" width="81" height="40" as="geometry">
            <mxRectangle width="81" height="40" as="alternateBounds" />
          </mxGeometry>
        </mxCell>
        <mxCell id="mdGvDX3dUPg5RDdedV_2-23" value="user" style="text;html=1;strokeColor=none;fillColor=none;align=center;verticalAlign=middle;whiteSpace=wrap;rounded=0;" vertex="1" parent="1">
          <mxGeometry x="384" y="140" width="60" height="30" as="geometry" />
        </mxCell>
        <mxCell id="mdGvDX3dUPg5RDdedV_2-24" value="history" style="text;html=1;strokeColor=none;fillColor=none;align=center;verticalAlign=middle;whiteSpace=wrap;rounded=0;" vertex="1" parent="1">
          <mxGeometry x="454" y="280" width="60" height="30" as="geometry" />
        </mxCell>
        <mxCell id="mdGvDX3dUPg5RDdedV_2-25" value="" style="shape=table;startSize=0;container=1;collapsible=0;childLayout=tableLayout;" vertex="1" parent="1">
          <mxGeometry x="299" y="310" width="462" height="60" as="geometry" />
        </mxCell>
        <mxCell id="mdGvDX3dUPg5RDdedV_2-26" value="" style="shape=tableRow;horizontal=0;startSize=0;swimlaneHead=0;swimlaneBody=0;top=0;left=0;bottom=0;right=0;collapsible=0;dropTarget=0;fillColor=none;points=[[0,0.5],[1,0.5]];portConstraint=eastwest;" vertex="1" parent="mdGvDX3dUPg5RDdedV_2-25">
          <mxGeometry width="462" height="20" as="geometry" />
        </mxCell>
        <mxCell id="mdGvDX3dUPg5RDdedV_2-27" value="timestamp" style="shape=partialRectangle;html=1;whiteSpace=wrap;connectable=0;overflow=hidden;fillColor=none;top=0;left=0;bottom=0;right=0;pointerEvents=1;" vertex="1" parent="mdGvDX3dUPg5RDdedV_2-26">
          <mxGeometry width="93" height="20" as="geometry">
            <mxRectangle width="93" height="20" as="alternateBounds" />
          </mxGeometry>
        </mxCell>
        <mxCell id="mdGvDX3dUPg5RDdedV_2-28" value="user_no" style="shape=partialRectangle;html=1;whiteSpace=wrap;connectable=0;overflow=hidden;fillColor=none;top=0;left=0;bottom=0;right=0;pointerEvents=1;" vertex="1" parent="mdGvDX3dUPg5RDdedV_2-26">
          <mxGeometry x="93" width="92" height="20" as="geometry">
            <mxRectangle width="92" height="20" as="alternateBounds" />
          </mxGeometry>
        </mxCell>
        <mxCell id="mdGvDX3dUPg5RDdedV_2-29" value="path" style="shape=partialRectangle;html=1;whiteSpace=wrap;connectable=0;overflow=hidden;fillColor=none;top=0;left=0;bottom=0;right=0;pointerEvents=1;" vertex="1" parent="mdGvDX3dUPg5RDdedV_2-26">
          <mxGeometry x="185" width="93" height="20" as="geometry">
            <mxRectangle width="93" height="20" as="alternateBounds" />
          </mxGeometry>
        </mxCell>
        <mxCell id="mdGvDX3dUPg5RDdedV_2-30" value="vuln_count" style="shape=partialRectangle;html=1;whiteSpace=wrap;connectable=0;overflow=hidden;fillColor=none;top=0;left=0;bottom=0;right=0;pointerEvents=1;" vertex="1" parent="mdGvDX3dUPg5RDdedV_2-26">
          <mxGeometry x="278" width="92" height="20" as="geometry">
            <mxRectangle width="92" height="20" as="alternateBounds" />
          </mxGeometry>
        </mxCell>
        <mxCell id="mdGvDX3dUPg5RDdedV_2-37" value="comment" style="shape=partialRectangle;html=1;whiteSpace=wrap;connectable=0;overflow=hidden;fillColor=none;top=0;left=0;bottom=0;right=0;pointerEvents=1;" vertex="1" parent="mdGvDX3dUPg5RDdedV_2-26">
          <mxGeometry x="370" width="92" height="20" as="geometry">
            <mxRectangle width="92" height="20" as="alternateBounds" />
          </mxGeometry>
        </mxCell>
        <mxCell id="mdGvDX3dUPg5RDdedV_2-31" value="" style="shape=tableRow;horizontal=0;startSize=0;swimlaneHead=0;swimlaneBody=0;top=0;left=0;bottom=0;right=0;collapsible=0;dropTarget=0;fillColor=none;points=[[0,0.5],[1,0.5]];portConstraint=eastwest;" vertex="1" parent="mdGvDX3dUPg5RDdedV_2-25">
          <mxGeometry y="20" width="462" height="40" as="geometry" />
        </mxCell>
        <mxCell id="mdGvDX3dUPg5RDdedV_2-32" value="timestamp" style="shape=partialRectangle;html=1;whiteSpace=wrap;connectable=0;overflow=hidden;fillColor=none;top=0;left=0;bottom=0;right=0;pointerEvents=1;" vertex="1" parent="mdGvDX3dUPg5RDdedV_2-31">
          <mxGeometry width="93" height="40" as="geometry">
            <mxRectangle width="93" height="40" as="alternateBounds" />
          </mxGeometry>
        </mxCell>
        <mxCell id="mdGvDX3dUPg5RDdedV_2-33" value="int&lt;br&gt;foriegn key" style="shape=partialRectangle;html=1;whiteSpace=wrap;connectable=0;overflow=hidden;fillColor=none;top=0;left=0;bottom=0;right=0;pointerEvents=1;" vertex="1" parent="mdGvDX3dUPg5RDdedV_2-31">
          <mxGeometry x="93" width="92" height="40" as="geometry">
            <mxRectangle width="92" height="40" as="alternateBounds" />
          </mxGeometry>
        </mxCell>
        <mxCell id="mdGvDX3dUPg5RDdedV_2-34" value="char" style="shape=partialRectangle;html=1;whiteSpace=wrap;connectable=0;overflow=hidden;fillColor=none;top=0;left=0;bottom=0;right=0;pointerEvents=1;" vertex="1" parent="mdGvDX3dUPg5RDdedV_2-31">
          <mxGeometry x="185" width="93" height="40" as="geometry">
            <mxRectangle width="93" height="40" as="alternateBounds" />
          </mxGeometry>
        </mxCell>
        <mxCell id="mdGvDX3dUPg5RDdedV_2-35" value="int" style="shape=partialRectangle;html=1;whiteSpace=wrap;connectable=0;overflow=hidden;fillColor=none;top=0;left=0;bottom=0;right=0;pointerEvents=1;" vertex="1" parent="mdGvDX3dUPg5RDdedV_2-31">
          <mxGeometry x="278" width="92" height="40" as="geometry">
            <mxRectangle width="92" height="40" as="alternateBounds" />
          </mxGeometry>
        </mxCell>
        <mxCell id="mdGvDX3dUPg5RDdedV_2-38" value="char" style="shape=partialRectangle;html=1;whiteSpace=wrap;connectable=0;overflow=hidden;fillColor=none;top=0;left=0;bottom=0;right=0;pointerEvents=1;" vertex="1" parent="mdGvDX3dUPg5RDdedV_2-31">
          <mxGeometry x="370" width="92" height="40" as="geometry">
            <mxRectangle width="92" height="40" as="alternateBounds" />
          </mxGeometry>
        </mxCell>
        <mxCell id="mdGvDX3dUPg5RDdedV_2-36" value="" style="endArrow=none;html=1;rounded=0;entryX=0.07;entryY=1.05;entryDx=0;entryDy=0;entryPerimeter=0;exitX=0.312;exitY=-0.05;exitDx=0;exitDy=0;exitPerimeter=0;" edge="1" parent="1" source="mdGvDX3dUPg5RDdedV_2-26" target="mdGvDX3dUPg5RDdedV_2-13">
          <mxGeometry width="50" height="50" relative="1" as="geometry">
            <mxPoint x="319" y="410" as="sourcePoint" />
            <mxPoint x="369" y="360" as="targetPoint" />
          </mxGeometry>
        </mxCell>
      </root>
    </mxGraphModel>
  </diagram>
</mxfile>
